<svg xmlns="http://www.w3.org/2000/svg" viewBox="0 0 257 80"><g fill="none" fill-rule="evenodd"><path fill="#3778BC" d="M252.105 11.725a6.425 6.425 0 01-1.564 3.875c-.112.114-.215.236-.329.348-1.072 1.046-2.5 1.7-4.082 1.7-3.32 0-6.012-2.822-6.012-6.303s2.691-6.303 6.012-6.303c3.195 0 5.784 2.622 5.975 5.923v.76zM246.127.299c-6.23 0-10.907 4.546-10.907 11.046 0 6.5 4.676 11.048 10.907 11.048S257 17.845 257 11.345 252.358.299 246.127.299zM223.79 9.745v4.835h4.65v1.663c-.746.641-2.295 1.283-3.812 1.283-3.379 0-5.764-2.69-5.764-6.181 0-3.522 2.385-6.18 5.764-6.18 2.013 0 3.594 1.312 4.366 2.722l4.464-2.401c-1.426-2.658-4.214-5.187-8.83-5.187-6.167 0-11.187 4.258-11.187 11.046 0 6.789 5.02 11.048 11.187 11.048 3.491 0 6.285-1.313 8.412-3.4.043-.043.082-.089.125-.132.35-.392.57-.905.603-1.47V9.744h-9.978M207.737.299h-.403a2.286 2.286 0 00-2.065 2.197v9.15L197.05.298h-5.388v20.62h5.236V8.987l8.587 11.934h5.053V.299h-2.8m-32.43 13.016l2.575-7.761 2.546 7.76h-5.12zM181.153.299h-6.573l-7.603 20.62h5.906l1-2.966h7.968l.524 1.556.006.018a2.259 2.259 0 001.95 1.393h4.426L181.153.299zm-24.171 15.983h-3.425V4.936h3.456c3.868 0 5.835 2.472 5.835 5.657 0 3.061-2.157 5.689-5.866 5.689zm0-15.983h-8.88v18.458c.075 1.186 1.058 2.128 2.285 2.163h6.626c6.627 0 11.416-3.926 11.416-10.327C168.43 4.193 163.64.3 156.982.3zm-14.657 0h-.268c-1.143.068-2.052.987-2.127 2.146v9.2L131.711.3h-5.389v20.62h5.236V8.987l8.586 11.934h5.054V.299h-2.873M110.06 13.315l2.558-7.761 2.527 7.76h-5.085zM115.867.299h-6.677l-7.552 20.62h6.014l.994-2.966h7.913l.52 1.556.006.018a2.244 2.244 0 001.937 1.393h4.396L115.868.299zm-11.325 4.594V.299H88.571v20.62h5.698V13.65h5.633a2.027 2.027 0 001.794-1.884V9.01h-7.427V4.893h10.273"/><path fill="#FF7300" d="M177.335 55.657c-.203 3.382-1.533 6.44-3.649 8.783-.26.258-.504.535-.767.79-2.503 2.371-5.835 3.853-9.525 3.853-7.748 0-14.03-6.396-14.03-14.286 0-7.891 6.282-14.286 14.03-14.286 7.455 0 13.497 5.942 13.941 13.423v1.723zm-13.95-25.9c-14.536 0-25.447 10.305-25.447 25.04 0 14.734 10.91 25.041 25.448 25.041s25.371-10.307 25.371-25.041c0-14.735-10.833-25.04-25.371-25.04zm-37.934.001h-.96a5.412 5.412 0 00-4.922 5.18v21.566l-19.6-26.746H87.12v48.607h12.486v-28.13l20.475 28.13h12.05V29.758h-6.679M230.15 78.365l-7.271-30.461-7.27 30.461h-13.103l-13.749-48.607h13.894l7.27 32.429 8.207-32.43h9.502l8.206 32.43 7.199-32.43H257l-13.749 48.608H230.15"/><path fill="#3778BC" d="M156.76 42.444l20.3 11.86-20.3 11.859v-23.72"/><path fill="#FF7300" d="M43.875 23.043l-18.079 4.901 3.633 13.72 18.079-4.9 3.633 13.72-18.078 4.901 3.633 13.72-18.079 4.902-4.396-16.602a13.74 13.74 0 002.576-12.149 13.555 13.555 0 00-8.234-9.216L4.085 19.127l36.157-9.804 3.633 13.72zm22.661-.767L60.743.402 0 16.872l5.795 21.884.003.009a10.154 10.154 0 017.745 7.374 10.299 10.299 0 01-3.064 10.305l.002.01 5.795 21.884 60.744-16.47-5.793-21.874a10.154 10.154 0 01-7.786-7.384c-1.03-3.885.3-7.846 3.095-10.334z"/><path fill="#FFFFFE" d="M43.645 22.883l-17.85 4.91 3.586 13.748 17.85-4.91 3.588 13.747-17.85 4.91 3.587 13.747-17.85 4.911-4.342-16.634A13.923 13.923 0 0016.91 45.14c-1.15-4.406-4.273-7.728-8.13-9.235L4.355 18.96l35.702-9.823 3.587 13.747"/></g></svg>